<svg width="88" height="20" viewBox="0 0 88 20" fill="none" xmlns="http://www.w3.org/2000/svg">
<path d="M2.60554 19.5467C2.8505 19.5468 3.09306 19.4975 3.31937 19.4018C3.54568 19.3062 3.75132 19.166 3.92453 18.9893C4.09774 18.8125 4.23514 18.6027 4.32888 18.3718C4.42262 18.1409 4.47088 17.8934 4.47088 17.6434V12.6283C4.47088 9.99997 5.53678 9.15404 6.89877 9.15404C8.46802 9.15404 9.1194 10.2115 9.1194 11.9637V19.5467H11.5473C11.7922 19.5468 12.0348 19.4975 12.2611 19.4018C12.4874 19.3062 12.6931 19.166 12.8663 18.9893C13.0395 18.8125 13.1769 18.6027 13.2706 18.3718C13.3644 18.1409 13.4126 17.8934 13.4126 17.6434V12.6283C13.4126 9.99997 14.4785 9.15404 15.8405 9.15404C17.4098 9.15404 18.0611 10.2115 18.0611 11.9637V19.5467H20.6667C20.9116 19.5468 21.1542 19.4975 21.3805 19.4018C21.6068 19.3062 21.8125 19.166 21.9857 18.9893C22.1589 18.8125 22.2963 18.6027 22.39 18.3718C22.4838 18.1409 22.532 17.8934 22.532 17.6434V10.4531C22.532 7.06944 20.489 5.13592 17.6466 5.13592C16.7104 5.11342 15.7862 5.3555 14.9763 5.83534C14.1664 6.31517 13.5023 7.01414 13.0573 7.85497H12.9981C12.2875 6.16314 10.8071 5.13592 8.70488 5.13592C6.69151 5.13592 5.21108 6.10271 4.44126 7.64348H4.38205V5.58912H1.73023C1.50301 5.58912 1.27801 5.6348 1.06809 5.72352C0.85817 5.81224 0.667423 5.94225 0.506757 6.10619C0.34609 6.27013 0.218647 6.46475 0.131696 6.67894C0.0447459 6.89314 -2.70006e-06 7.12275 1.22192e-10 7.3546V19.5467H2.60554ZM30.6361 19.9999C32.8567 19.9999 34.2483 19.0634 35.107 17.6434H35.1662V19.5467H37.7717C38.0167 19.5468 38.2592 19.4975 38.4856 19.4018C38.7119 19.3062 38.9175 19.166 39.0907 18.9893C39.2639 18.8125 39.4013 18.6027 39.4951 18.3718C39.5888 18.1409 39.6371 17.8934 39.6371 17.6434V5.58912H36.8964C36.6692 5.58912 36.4442 5.6348 36.2343 5.72352C36.0244 5.81224 35.8336 5.94225 35.6729 6.10619C35.5123 6.27013 35.3848 6.46475 35.2979 6.67894C35.2109 6.89314 35.1662 7.12275 35.1662 7.3546V7.49243H35.107C34.2483 6.0725 32.8567 5.13592 30.6361 5.13592C27.0831 5.13592 24.1518 7.67368 24.1518 12.5679C24.1518 17.4621 27.0831 19.9999 30.6361 19.9999ZM31.8797 15.8307C30.1031 15.8307 28.7412 14.5619 28.7412 12.5679C28.7412 10.574 30.1031 9.30509 31.8797 9.30509C33.6858 9.30509 35.0478 10.574 35.0478 12.5679C35.0478 14.5619 33.6858 15.8307 31.8797 15.8307ZM51.3289 5.58912H48.5161V0H45.7755C45.5482 0 45.3232 0.04568 45.1133 0.134404C44.9034 0.223127 44.7127 0.353186 44.552 0.517126C44.3913 0.681065 44.2639 0.875681 44.1769 1.08988C44.09 1.30407 44.0452 1.53364 44.0452 1.76548V5.58912H41.3805V9.39575H44.0452V14.8338C44.0452 18.1872 45.8514 19.5467 48.6345 19.5467C48.8795 19.5468 49.1221 19.4975 49.3484 19.4018C49.5747 19.3062 49.7803 19.166 49.9535 18.9893C50.1267 18.8125 50.2641 18.6027 50.3579 18.3718C50.4516 18.1409 50.4999 17.8934 50.4999 17.6434V15.3171H49.9965C48.8418 15.3171 48.5161 14.8942 48.5161 13.5951V9.39575H49.4636C49.9583 9.39575 50.4328 9.1952 50.7826 8.83826C51.1324 8.48132 51.3289 7.99722 51.3289 7.49243V5.58912ZM62.4064 5.58912H59.5936V0H56.8529C56.6257 0 56.4007 0.04568 56.1908 0.134404C55.9809 0.223127 55.7901 0.353186 55.6295 0.517126C55.4688 0.681065 55.3413 0.875681 55.2544 1.08988C55.1674 1.30407 55.1227 1.53364 55.1227 1.76548V5.58912H52.4579V9.39575H55.1227V14.8338C55.1227 18.1872 56.9288 19.5467 59.712 19.5467C59.957 19.5468 60.1995 19.4975 60.4258 19.4018C60.6521 19.3062 60.8578 19.166 61.031 18.9893C61.2042 18.8125 61.3416 18.6027 61.4353 18.3718C61.5291 18.1409 61.5773 17.8934 61.5773 17.6434V15.3171H61.074C59.9193 15.3171 59.5936 14.8942 59.5936 13.5951V9.39575H60.541C61.0358 9.39575 61.5102 9.1952 61.86 8.83826C62.2099 8.48132 62.4064 7.99722 62.4064 7.49243V5.58912ZM70.5074 5.16614C66.303 5.16614 63.2829 7.91539 63.2829 12.6283C63.2829 17.0694 66.3326 19.9999 70.9219 19.9999C72.2466 20.0057 73.5607 19.7586 74.7964 19.2714C75.0339 19.1748 75.2494 19.0293 75.4292 18.8438C75.6091 18.6584 75.7495 18.4371 75.8417 18.1938C75.9339 17.9504 75.9758 17.6902 75.9649 17.4295C75.954 17.1689 75.8904 16.9133 75.7782 16.6789L74.9486 14.9244C73.77 15.7209 72.3945 16.1608 70.9811 16.1933C69.1454 16.1933 67.7834 15.4078 67.4873 13.6555H77.2877V12.6283C77.2877 7.58306 74.6229 5.16614 70.5074 5.16614ZM70.3593 8.39874C71.8101 8.39874 72.9056 9.33528 72.9649 10.9667H67.5169C67.7242 9.15402 68.8493 8.39874 70.3593 8.39874ZM87.9112 5.16614C85.7498 5.16614 84.1805 6.1329 83.3811 8.42896H83.3219V5.58912H80.67C80.4428 5.58912 80.2178 5.6348 80.0079 5.72352C79.798 5.81224 79.6072 5.94225 79.4466 6.10619C79.2859 6.27013 79.1585 6.46475 79.0715 6.67894C78.9846 6.89314 78.9398 7.12275 78.9398 7.3546V19.5467H81.5453C81.7903 19.5468 82.0329 19.4975 82.2592 19.4018C82.4855 19.3062 82.6911 19.166 82.8643 18.9893C83.0376 18.8125 83.1749 18.6027 83.2687 18.3718C83.3624 18.1409 83.4107 17.8934 83.4107 17.6434V14.4108C83.4107 10.8459 84.6246 9.72807 87.6151 9.72807H88V5.16614H87.9112Z" fill="#343799"/>
</svg>
