<svg width="120" height="24" viewBox="0 0 120 24" fill="none" xmlns="http://www.w3.org/2000/svg">
<path d="M10.1359 3.84334C10.7585 2.05222 13.2916 2.05222 13.9142 3.84334L14.8597 6.5635C15.1344 7.35364 15.8717 7.88938 16.7081 7.90642L19.5873 7.9651C21.4831 8.00373 22.2659 10.4128 20.7548 11.5584L18.46 13.2983C17.7934 13.8036 17.5117 14.6705 17.754 15.4712L18.5879 18.2276C19.137 20.0426 17.0877 21.5315 15.5312 20.4484L13.1674 18.8035C12.4808 18.3257 11.5693 18.3257 10.8827 18.8035L8.51887 20.4484C6.96239 21.5315 4.91309 20.0426 5.4622 18.2276L6.29612 15.4712C6.53835 14.6705 6.2567 13.8036 5.5901 13.2983L3.29526 11.5584C1.7842 10.4128 2.56696 8.00373 4.46281 7.9651L7.34201 7.90642C8.17835 7.88938 8.91574 7.35364 9.19039 6.5635L10.1359 3.84334Z" fill="#F2A645"/>
<path d="M34.1359 3.84334C34.7585 2.05222 37.2916 2.05222 37.9142 3.84334L38.8597 6.5635C39.1344 7.35364 39.8717 7.88938 40.7081 7.90642L43.5873 7.9651C45.4831 8.00373 46.2659 10.4128 44.7548 11.5584L42.46 13.2983C41.7934 13.8036 41.5117 14.6705 41.754 15.4712L42.5879 18.2276C43.137 20.0426 41.0877 21.5315 39.5312 20.4484L37.1674 18.8035C36.4808 18.3257 35.5693 18.3257 34.8827 18.8035L32.5189 20.4484C30.9624 21.5315 28.9131 20.0426 29.4622 18.2276L30.2961 15.4712C30.5383 14.6705 30.2567 13.8036 29.5901 13.2983L27.2953 11.5584C25.7842 10.4128 26.567 8.00373 28.4628 7.9651L31.342 7.90642C32.1783 7.88938 32.9157 7.35364 33.1904 6.5635L34.1359 3.84334Z" fill="#F2A645"/>
<path d="M58.1359 3.84334C58.7585 2.05222 61.2916 2.05222 61.9142 3.84334L62.8597 6.5635C63.1344 7.35364 63.8717 7.88938 64.7081 7.90642L67.5873 7.9651C69.4831 8.00373 70.2659 10.4128 68.7548 11.5584L66.46 13.2983C65.7934 13.8036 65.5117 14.6705 65.754 15.4712L66.5879 18.2276C67.137 20.0426 65.0877 21.5315 63.5312 20.4484L61.1674 18.8035C60.4808 18.3257 59.5693 18.3257 58.8827 18.8035L56.5189 20.4484C54.9624 21.5315 52.9131 20.0426 53.4622 18.2276L54.2961 15.4712C54.5383 14.6705 54.2567 13.8036 53.5901 13.2983L51.2953 11.5584C49.7842 10.4128 50.567 8.00373 52.4628 7.9651L55.342 7.90642C56.1783 7.88938 56.9157 7.35364 57.1904 6.5635L58.1359 3.84334Z" fill="#F2A645"/>
<path d="M82.1359 3.84334C82.7585 2.05222 85.2916 2.05222 85.9142 3.84334L86.8597 6.5635C87.1344 7.35364 87.8717 7.88938 88.7081 7.90642L91.5873 7.9651C93.4831 8.00373 94.2659 10.4128 92.7548 11.5584L90.46 13.2983C89.7934 13.8036 89.5117 14.6705 89.754 15.4712L90.5879 18.2276C91.137 20.0426 89.0877 21.5315 87.5312 20.4484L85.1674 18.8035C84.4808 18.3257 83.5693 18.3257 82.8827 18.8035L80.5189 20.4484C78.9624 21.5315 76.9131 20.0426 77.4622 18.2276L78.2961 15.4712C78.5383 14.6705 78.2567 13.8036 77.5901 13.2983L75.2953 11.5584C73.7842 10.4128 74.567 8.00373 76.4628 7.9651L79.342 7.90642C80.1783 7.88938 80.9157 7.35364 81.1904 6.5635L82.1359 3.84334Z" fill="#F2A645"/>
<path d="M106.136 3.84334C106.758 2.05222 109.292 2.05222 109.914 3.84334L110.86 6.5635C111.134 7.35364 111.872 7.88938 112.708 7.90642L115.587 7.9651C117.483 8.00373 118.266 10.4128 116.755 11.5584L114.46 13.2983C113.793 13.8036 113.512 14.6705 113.754 15.4712L114.588 18.2276C115.137 20.0426 113.088 21.5315 111.531 20.4484L109.167 18.8035C108.481 18.3257 107.569 18.3257 106.883 18.8035L104.519 20.4484C102.962 21.5315 100.913 20.0426 101.462 18.2276L102.296 15.4712C102.538 14.6705 102.257 13.8036 101.59 13.2983L99.2953 11.5584C97.7842 10.4128 98.567 8.00373 100.463 7.9651L103.342 7.90642C104.178 7.88938 104.916 7.35364 105.19 6.5635L106.136 3.84334Z" fill="#F2A645"/>
</svg>
